<?xml version="1.0" standalone="no"?>
<!DOCTYPE svg PUBLIC "-//W3C//DTD SVG 20010904//EN"
 "http://www.w3.org/TR/2001/REC-SVG-20010904/DTD/svg10.dtd">
<svg version="1.0" xmlns="http://www.w3.org/2000/svg"
 width="2400.000000pt" height="1800.000000pt" viewBox="0 0 2400.000000 1800.000000"
 preserveAspectRatio="xMidYMid meet">

<g transform="translate(0.000000,1800.000000) scale(0.100000,-0.100000)"
fill="#000000" stroke="none">
<path d="M14828 11060 c-58 -11 -134 -29 -168 -40 -84 -28 -212 -93 -275 -140
-89 -66 -189 -182 -238 -277 -67 -131 -81 -192 -81 -358 0 -131 2 -146 32
-233 32 -94 90 -195 152 -266 93 -105 275 -226 510 -339 427 -205 500 -242
579 -294 212 -140 311 -301 311 -507 0 -202 -123 -393 -310 -484 -47 -23 -110
-48 -141 -56 -307 -78 -693 48 -968 315 l-55 53 -38 -45 c-21 -24 -65 -76 -98
-115 l-60 -72 85 -81 c190 -183 453 -312 724 -357 137 -22 379 -15 496 15 185
46 314 119 440 246 104 104 163 197 205 324 95 286 48 582 -129 804 -133 166
-287 263 -772 486 -280 128 -378 184 -469 269 -84 76 -124 136 -150 220 -53
171 -3 352 133 478 79 73 167 120 284 150 89 23 111 25 243 21 203 -7 341 -50
445 -140 69 -59 95 -120 102 -237 l6 -100 149 0 148 0 0 99 c0 230 -31 325
-145 437 -121 120 -307 197 -552 229 -148 19 -263 18 -395 -5z"/>
<path d="M17790 11074 c-220 -17 -500 -114 -706 -246 -615 -395 -878 -1221
-628 -1978 137 -417 427 -757 799 -940 328 -160 739 -205 1105 -119 213 49
402 131 585 254 99 66 265 206 265 223 0 4 -40 57 -88 118 l-88 112 -79 -71
c-149 -132 -336 -241 -518 -302 -180 -60 -250 -70 -467 -70 -185 1 -201 2
-310 32 -468 125 -816 508 -931 1026 -15 67 -22 143 -26 279 -6 205 6 314 54
478 27 94 113 282 164 357 186 275 458 456 794 529 130 29 385 24 546 -9 303
-63 519 -194 577 -350 17 -46 22 -80 22 -162 l0 -105 150 0 150 0 0 138 c0
175 -11 240 -56 331 -105 214 -414 381 -829 451 -127 21 -363 33 -485 24z"/>
<path d="M8910 10880 l0 -140 150 0 150 0 0 -1470 0 -1470 160 0 160 0 0 681
0 680 338 -3 338 -3 49 -26 c30 -15 64 -44 85 -72 19 -26 154 -285 300 -575
349 -695 323 -668 648 -679 l162 -6 0 140 0 140 -89 6 c-101 6 -148 23 -179
62 -12 15 -132 248 -268 517 -195 388 -256 500 -290 536 -24 25 -43 46 -41 47
1 1 35 12 75 25 189 59 354 208 449 405 72 151 86 221 87 430 1 195 -8 249
-65 388 -41 102 -86 173 -163 254 -81 86 -171 149 -282 196 -171 73 -132 70
-996 74 l-778 4 0 -141z m1565 -173 c44 -16 96 -38 115 -50 193 -117 294 -343
277 -616 -19 -290 -151 -478 -397 -565 l-85 -31 -427 -3 -428 -4 0 652 0 651
433 -3 432 -3 80 -28z"/>
<path d="M12200 10880 l0 -140 421 0 421 0 29 -29 29 -29 0 -1027 c0 -704 -3
-1049 -11 -1098 -50 -321 -261 -507 -577 -507 -172 0 -304 51 -411 159 -114
114 -155 225 -173 469 l-12 152 -156 0 -155 0 3 -142 c5 -232 52 -416 144
-558 23 -36 78 -101 123 -146 146 -143 342 -222 581 -231 158 -7 266 7 388 48
150 51 281 140 379 259 53 64 122 202 151 302 45 157 47 213 44 1383 l-3 1100
-28 58 c-22 44 -39 63 -75 85 l-47 27 -532 3 -533 3 0 -141z"/>
<path d="M6309 10607 c-30 -18 -245 -167 -479 -332 -939 -660 -1447 -1019
-1486 -1051 -74 -60 -144 -236 -158 -402 -12 -146 26 -429 70 -513 13 -25 20
-30 40 -25 19 5 30 -1 55 -28 33 -38 124 -87 407 -220 l182 -86 60 47 c33 25
60 49 60 52 0 3 -55 34 -123 68 -67 34 -211 111 -320 170 -157 86 -199 113
-205 133 -13 45 -8 499 7 593 7 48 15 87 18 87 27 0 680 -294 1422 -640 156
-72 308 -140 339 -151 66 -23 130 -24 178 -4 43 18 -8 -21 1224 941 239 187
441 344 448 348 7 4 2 -14 -11 -41 -71 -138 -76 -274 -15 -393 l36 -69 -507
-433 c-278 -238 -687 -589 -908 -780 -221 -192 -406 -348 -410 -348 -13 0
-441 180 -627 264 l-169 76 -31 -24 c-42 -32 -71 -82 -54 -93 55 -34 561 -268
765 -354 181 -76 187 -73 588 286 99 89 394 350 655 580 770 678 950 845 950
881 0 30 -60 69 -153 100 l-92 31 -3 51 c-7 119 74 312 166 396 210 192 213
197 140 240 -54 31 -161 72 -1396 530 l-392 146 -108 0 c-105 0 -110 -1 -163
-33z m245 -63 c19 -19 20 -28 4 -42 -39 -31 -118 -18 -118 19 0 37 83 54 114
23z m426 -215 c319 -116 744 -282 827 -322 26 -13 47 -28 46 -33 -1 -5 -8 -24
-15 -42 -15 -39 -7 -57 44 -91 l36 -23 -136 -117 c-400 -340 -891 -729 -1185
-939 l-99 -70 -37 13 c-92 32 -126 29 -257 -25 -30 -13 -50 -5 -655 274 -343
157 -630 291 -638 295 -12 8 -8 15 17 36 40 34 41 61 2 83 -16 9 -30 20 -30
23 0 6 -19 -8 400 289 355 252 483 342 823 581 l238 168 34 -15 c19 -8 61 -14
93 -14 47 0 67 6 102 28 33 21 51 27 65 21 11 -5 157 -58 325 -120z m1156
-370 c37 -31 2 -89 -54 -89 -65 0 -97 61 -49 95 24 18 78 15 103 -6z m-3341
-657 c8 -22 -29 -52 -65 -52 -36 0 -75 31 -67 53 14 38 117 37 132 -1z m1623
-718 c24 -17 29 -43 10 -62 -18 -18 -103 -15 -123 4 -47 47 54 100 113 58z"/>
<path d="M6482 10533 c-19 -7 -4 -23 24 -23 27 0 32 15 8 24 -9 3 -16 6 -17 5
-1 0 -8 -3 -15 -6z"/>
<path d="M6610 10400 c-44 -34 -117 -45 -188 -26 l-63 16 -307 -217 c-169
-119 -381 -268 -472 -333 -91 -64 -265 -187 -387 -274 -123 -86 -225 -162
-229 -167 -3 -6 1 -18 10 -28 20 -22 20 -60 0 -89 -15 -22 -14 -23 73 -63 48
-22 322 -148 609 -280 l520 -240 55 25 c76 36 125 41 199 22 l63 -16 41 26
c164 107 671 505 1073 840 137 114 249 208 251 209 2 1 -11 17 -28 34 -29 28
-31 36 -28 83 l3 53 -135 56 c-183 76 -1013 390 -1030 389 -3 0 -16 -9 -30
-20z"/>
<path d="M8057 9943 c-28 -7 -16 -38 17 -41 39 -5 57 15 32 34 -11 8 -22 13
-25 13 -3 -1 -14 -3 -24 -6z"/>
<path d="M4705 9290 c3 -5 15 -10 25 -10 10 0 22 5 25 10 4 6 -7 10 -25 10
-18 0 -29 -4 -25 -10z"/>
<path d="M6337 8563 c-30 -8 -8 -23 34 -23 42 0 53 14 17 24 -13 3 -25 5 -28
5 -3 -1 -13 -3 -23 -6z"/>
<path d="M5124 8650 l119 -62 -37 -30 c-79 -65 -99 -159 -72 -337 26 -169 25
-172 -39 -220 -30 -23 -70 -65 -88 -94 -25 -38 -48 -60 -88 -81 -30 -16 -92
-57 -139 -91 -112 -82 -129 -93 -197 -122 l-58 -24 66 6 c81 7 150 29 286 94
57 28 103 48 103 46 0 -2 -21 -39 -46 -81 -56 -91 -96 -202 -92 -251 l3 -36
53 71 c87 117 149 179 230 229 92 56 135 94 167 150 14 22 41 51 60 63 37 23
65 65 65 99 0 11 -9 65 -20 121 -22 114 -25 168 -10 222 12 42 84 138 104 138
7 0 84 -34 171 -76 187 -90 265 -124 265 -119 0 3 -33 26 -72 53 -187 126
-437 251 -670 336 -181 65 -198 64 -64 -4z"/>
<path d="M6226 8188 c-57 -76 -71 -124 -71 -248 1 -98 5 -129 29 -208 16 -50
31 -90 33 -88 3 2 -3 55 -12 118 -11 74 -16 150 -13 220 4 95 8 114 36 170 17
34 29 64 27 66 -1 2 -15 -12 -29 -30z"/>
<path d="M8964 7310 c-33 -13 -64 -59 -64 -96 0 -42 40 -82 106 -108 92 -36
115 -76 69 -121 -31 -32 -76 -32 -130 -1 -40 24 -42 24 -53 6 -10 -16 -6 -22
26 -42 50 -31 149 -32 183 -3 49 44 57 115 17 152 -11 10 -52 34 -91 53 -65
31 -72 38 -75 67 -6 56 55 79 125 47 24 -12 37 -14 45 -6 36 36 -93 79 -158
52z"/>
<path d="M10175 7306 c-69 -30 -110 -111 -103 -205 8 -105 62 -168 152 -178
66 -8 156 47 117 71 -5 3 -26 -4 -48 -16 -86 -47 -164 10 -171 126 -5 77 15
128 60 156 40 24 69 25 109 5 53 -28 68 3 17 35 -38 23 -89 25 -133 6z"/>
<path d="M11185 7306 c-62 -27 -95 -93 -95 -188 1 -106 48 -179 126 -194 131
-24 228 102 194 253 -25 113 -128 172 -225 129z m115 -41 c42 -22 64 -69 64
-140 2 -128 -89 -206 -168 -144 -40 31 -56 71 -56 139 0 126 72 191 160 145z"/>
<path d="M13474 7302 c-72 -45 -103 -132 -84 -232 18 -97 70 -145 158 -145 44
0 65 5 91 24 96 69 95 274 -1 345 -40 28 -124 33 -164 8z m118 -33 c42 -19 62
-59 66 -132 5 -78 -8 -117 -50 -152 -50 -42 -112 -28 -151 34 -26 43 -30 137
-8 190 24 57 90 85 143 60z"/>
<path d="M14234 7310 c-30 -12 -64 -58 -64 -87 0 -48 26 -79 92 -108 108 -48
135 -92 82 -134 -34 -27 -70 -26 -126 2 -43 22 -46 22 -57 6 -9 -15 -4 -22 27
-41 28 -18 52 -23 99 -23 57 0 65 3 95 32 26 26 33 41 33 73 0 51 -23 74 -118
120 -65 31 -72 38 -75 67 -6 56 55 79 125 47 24 -12 37 -14 45 -6 36 36 -93
79 -158 52z"/>
<path d="M14894 7302 c-45 -29 -71 -67 -83 -122 -20 -92 10 -188 72 -234 42
-31 130 -29 176 3 96 69 95 274 -1 345 -40 28 -124 33 -164 8z m126 -38 c39
-24 60 -74 60 -145 0 -67 -16 -107 -56 -138 -32 -25 -64 -27 -104 -6 -42 22
-64 69 -64 140 -1 74 18 122 58 146 38 23 69 24 106 3z"/>
<path d="M15970 7313 c-71 -27 -110 -95 -110 -193 0 -112 52 -185 139 -197 45
-6 102 10 125 36 14 16 15 20 2 30 -12 10 -21 8 -45 -10 -63 -46 -151 1 -170
92 -30 137 75 257 168 193 21 -15 24 -15 38 -1 14 14 13 18 -18 36 -33 20 -95
27 -129 14z"/>
<path d="M16243 7304 c-61 -30 -92 -90 -93 -179 0 -73 16 -121 55 -160 56 -56
145 -59 205 -8 49 41 64 79 64 163 1 61 -3 83 -23 116 -42 74 -134 104 -208
68z m134 -46 c27 -22 53 -90 53 -138 0 -121 -98 -198 -175 -138 -36 28 -55 76
-55 138 0 100 52 166 123 157 21 -3 45 -11 54 -19z"/>
<path d="M18250 7299 c-63 -39 -90 -93 -90 -184 0 -112 69 -194 163 -195 60 0
134 47 110 71 -7 7 -22 3 -47 -12 -27 -16 -46 -20 -73 -16 -68 11 -103 65
-103 157 0 92 35 146 104 157 25 4 44 0 62 -11 26 -18 54 -15 54 4 0 19 -64
50 -105 50 -23 0 -55 -9 -75 -21z"/>
<path d="M19260 7309 c-121 -49 -139 -282 -27 -363 40 -29 134 -29 174 0 115
85 100 309 -24 360 -37 16 -87 17 -123 3z m110 -44 c44 -23 64 -69 64 -145 0
-74 -20 -117 -64 -144 -83 -49 -161 19 -161 142 -1 126 72 193 161 147z"/>
<path d="M8310 7121 c0 -184 1 -191 20 -191 18 0 20 7 20 80 l0 80 39 0 c39 0
40 -1 81 -76 42 -76 56 -89 84 -82 12 2 5 21 -31 83 -34 59 -42 80 -32 84 8 2
26 17 41 32 38 37 39 105 4 146 -23 27 -29 28 -125 31 l-101 4 0 -191z m153
148 c42 -11 61 -43 51 -85 -10 -38 -42 -54 -106 -54 l-58 0 0 68 c0 38 3 72 7
75 10 10 63 8 106 -4z"/>
<path d="M8620 7120 l0 -190 115 0 c108 0 115 1 115 20 0 19 -7 20 -90 20
l-90 0 0 70 0 70 75 0 c68 0 75 2 75 20 0 18 -7 20 -75 20 l-75 0 0 60 0 59
87 3 c74 3 88 6 91 21 3 15 -7 17 -112 17 l-116 0 0 -190z"/>
<path d="M9200 7120 l0 -190 110 0 c103 0 110 1 110 20 0 19 -7 20 -90 20
l-91 0 3 68 3 67 73 3 c64 3 72 5 72 22 0 18 -7 20 -75 20 l-75 0 0 60 0 60
90 0 c83 0 90 1 90 20 0 19 -7 20 -110 20 l-110 0 0 -190z"/>
<path d="M9555 7298 c-3 -7 -32 -93 -64 -190 -59 -176 -59 -178 -36 -178 20 0
26 9 42 58 l20 57 70 3 70 3 18 -61 c15 -51 22 -60 42 -60 12 0 23 3 23 8 0 4
-28 89 -62 190 -61 178 -63 182 -90 182 -16 0 -31 -6 -33 -12z m59 -112 c14
-46 26 -89 26 -95 0 -7 -22 -11 -56 -11 -49 0 -56 2 -51 18 20 71 51 172 53
172 2 0 14 -38 28 -84z"/>
<path d="M9780 7120 c0 -183 1 -190 20 -190 18 0 20 7 20 80 l0 80 38 0 c38 0
39 -2 83 -80 38 -69 47 -80 71 -80 l27 0 -46 82 c-35 62 -43 83 -32 87 7 2 26
17 41 32 22 21 28 37 28 69 0 85 -38 110 -165 110 l-85 0 0 -190z m149 150
c41 -11 51 -24 51 -67 0 -47 -38 -73 -106 -73 l-54 0 0 68 c0 38 3 72 7 75 9
10 63 8 102 -3z"/>
<path d="M10400 7120 l0 -190 25 0 c25 0 25 1 25 90 l0 90 90 0 90 0 0 -90 c0
-89 0 -90 25 -90 l25 0 0 190 0 190 -25 0 c-25 0 -25 -1 -25 -80 l0 -80 -90 0
-90 0 0 80 c0 79 0 80 -25 80 l-25 0 0 -190z"/>
<path d="M10980 7152 c0 -141 -2 -161 -18 -175 -25 -23 -61 -21 -87 3 -20 19
-55 19 -55 1 0 -21 53 -54 93 -58 39 -5 48 -2 78 25 l34 30 3 166 3 166 -25 0
-26 0 0 -158z"/>
<path d="M11472 7163 c3 -124 7 -153 23 -180 52 -88 193 -83 235 9 16 36 20
66 20 181 l0 137 -25 0 -25 0 0 -146 0 -146 -29 -29 c-31 -31 -67 -37 -103
-18 -36 20 -48 69 -48 209 l0 130 -26 0 -26 0 4 -147z"/>
<path d="M11830 7121 l0 -191 25 0 c25 0 25 1 25 80 l0 80 34 0 c32 0 37 -5
80 -80 39 -67 51 -80 72 -80 14 0 23 3 21 8 -2 4 -23 41 -47 81 -33 57 -40 76
-29 80 8 2 26 17 41 32 23 22 28 36 28 76 0 40 -5 54 -26 74 -23 21 -36 24
-125 27 l-99 4 0 -191z m159 146 c62 -22 65 -104 5 -127 -14 -6 -45 -10 -70
-10 l-44 0 0 75 0 75 38 -1 c20 0 52 -5 71 -12z"/>
<path d="M12150 7120 c0 -185 0 -190 21 -190 20 0 20 4 17 161 -2 88 1 155 5
147 4 -7 45 -78 90 -158 72 -126 86 -145 110 -148 l27 -3 0 190 c0 184 -1 191
-20 191 -19 0 -20 -7 -20 -162 l0 -163 -61 110 c-109 197 -122 215 -146 215
l-23 0 0 -190z"/>
<path d="M12575 7298 c-3 -7 -32 -93 -64 -190 -59 -176 -59 -178 -36 -178 20
0 26 9 42 58 l20 57 70 3 70 3 18 -61 c15 -51 22 -60 42 -60 12 0 23 3 23 8 0
4 -28 89 -62 190 -61 178 -63 182 -90 182 -16 0 -31 -6 -33 -12z m59 -112 c14
-46 26 -89 26 -95 0 -7 -22 -11 -55 -11 -30 0 -55 2 -55 6 0 9 53 184 56 184
2 0 14 -38 28 -84z"/>
<path d="M12800 7120 l0 -190 105 0 c98 0 105 1 105 20 0 18 -7 20 -85 20
l-85 0 0 170 c0 163 -1 170 -20 170 -19 0 -20 -7 -20 -190z"/>
<path d="M13150 7120 c0 -183 1 -190 20 -190 18 0 20 7 20 85 l0 85 75 0 c68
0 75 2 75 20 0 18 -7 20 -75 20 l-75 0 0 65 0 65 90 0 c83 0 90 1 90 20 0 19
-7 20 -110 20 l-110 0 0 -190z"/>
<path d="M13770 7121 l0 -191 25 0 c25 0 25 1 25 81 l0 80 37 -3 c36 -3 40 -7
81 -80 36 -64 48 -78 68 -78 13 0 24 2 24 5 0 3 -20 40 -45 82 l-44 77 29 14
c62 30 76 124 24 173 -23 21 -36 24 -125 27 l-99 4 0 -191z m186 134 c32 -21
32 -68 -1 -100 -20 -21 -34 -25 -80 -25 l-55 0 0 76 0 77 56 -6 c30 -3 66 -13
80 -22z"/>
<path d="M14470 7120 c0 -183 1 -190 20 -190 19 0 20 7 20 90 l0 90 95 0 95 0
0 -90 c0 -89 0 -90 25 -90 l25 0 0 190 0 190 -25 0 c-25 0 -25 -1 -25 -80 l0
-81 -92 3 -93 3 -3 78 c-3 69 -5 77 -22 77 -19 0 -20 -8 -20 -190z"/>
<path d="M15190 7120 l0 -190 25 0 c25 0 25 1 25 81 l0 80 37 -3 c36 -3 40 -7
81 -80 37 -65 48 -78 69 -78 30 0 29 1 -25 95 l-41 69 29 14 c28 13 60 64 60
95 0 33 -22 74 -49 90 -22 13 -52 17 -120 17 l-91 0 0 -190z m159 149 c55 -19
68 -73 26 -114 -20 -21 -34 -25 -80 -25 l-55 0 0 75 0 75 39 0 c21 0 52 -5 70
-11z"/>
<path d="M15460 7290 c0 -18 7 -20 60 -20 l60 0 0 -170 c0 -163 1 -170 20
-170 19 0 20 7 20 170 l0 170 60 0 c53 0 60 2 60 20 0 19 -7 20 -140 20 -133
0 -140 -1 -140 -20z"/>
<path d="M16540 7120 c0 -185 0 -190 21 -190 20 0 20 4 17 160 -3 180 -5 180
62 -3 31 -87 47 -117 58 -115 13 3 49 88 116 273 2 6 1 -63 -2 -152 l-5 -163
27 0 26 0 0 190 0 190 -29 0 c-32 0 -29 5 -86 -155 -19 -55 -38 -107 -41 -115
-7 -18 -16 3 -70 158 -37 106 -40 112 -66 112 l-28 0 0 -190z"/>
<path d="M16940 7120 c0 -183 1 -190 20 -190 18 0 20 8 22 156 l3 156 50 -136
c34 -95 54 -136 65 -136 10 0 30 42 65 138 l50 137 3 -157 c2 -150 4 -158 22
-158 19 0 20 7 20 190 l0 190 -29 0 c-28 0 -30 -4 -77 -140 -27 -76 -52 -136
-55 -132 -4 4 -28 67 -55 140 -45 127 -48 132 -75 132 l-29 0 0 -190z"/>
<path d="M17340 7173 c0 -115 4 -145 20 -181 42 -92 183 -97 235 -9 16 27 20
56 23 180 l4 147 -25 0 -26 0 -3 -151 -3 -151 -28 -24 c-16 -13 -41 -24 -57
-24 -16 0 -41 11 -57 24 l-28 24 -3 151 -3 151 -25 0 -24 0 0 -137z"/>
<path d="M17700 7120 c0 -185 1 -190 20 -190 20 0 21 4 18 159 -2 88 -2 158 0
157 1 -2 42 -73 91 -157 75 -131 92 -154 115 -157 l26 -3 0 190 c0 184 -1 191
-20 191 -19 0 -20 -7 -20 -162 l0 -163 -21 40 c-12 22 -53 95 -91 163 -59 102
-74 122 -94 122 l-24 0 0 -190z"/>
<path d="M18050 7120 l0 -190 25 0 25 0 0 190 0 190 -25 0 -25 0 0 -190z"/>
<path d="M18565 7298 c-3 -7 -32 -93 -64 -190 -59 -176 -59 -178 -36 -178 20
0 26 9 42 58 l20 57 70 3 70 3 18 -61 c15 -51 22 -60 42 -60 12 0 23 3 23 7 0
4 -28 89 -62 190 -61 178 -64 183 -91 183 -15 0 -30 -6 -32 -12z m59 -112 c14
-46 26 -89 26 -95 0 -7 -22 -11 -55 -11 -30 0 -55 2 -55 6 0 8 53 184 56 184
1 0 13 -38 28 -84z"/>
<path d="M18722 7293 c2 -14 15 -19 61 -21 l57 -3 0 -169 0 -170 25 0 25 0 0
170 0 169 57 3 c46 2 59 7 61 21 3 16 -9 17 -143 17 -134 0 -146 -1 -143 -17z"/>
<path d="M19050 7120 l0 -190 25 0 25 0 0 190 0 190 -25 0 -25 0 0 -190z"/>
<path d="M19540 7120 l0 -190 26 0 26 0 -3 159 c-2 88 -1 154 3 148 4 -7 45
-78 90 -159 75 -134 86 -148 111 -148 l27 0 0 190 0 190 -26 0 -27 0 6 -161 5
-160 -91 160 c-83 148 -93 161 -119 161 l-28 0 0 -190z"/>
</g>
</svg>
